<svg xmlns="http://www.w3.org/2000/svg" viewBox="0 0 128 128"><defs><radialGradient id="bg" cx="42%" cy="34%" r="86%"><stop offset="0%" stop-color="#1c2438"></stop><stop offset="100%" stop-color="#0b0f1c"></stop></radialGradient></defs><rect width="128" height="128" rx="26" fill="url(#bg)"></rect><circle cx="64" cy="64" r="52" fill="none" stroke="#c9a45c" stroke-width="2.4" stroke-dasharray="300 46" stroke-dashoffset="-30" stroke-linecap="round" opacity=".9"></circle><svg x="43.5" y="42.5" width="41" height="41" viewBox="4 -2 40 50"><g style="--fill:#c9a45c;--detail:#7a5c26;--accent:#e3c07a"><path d="M24 8.2 A5.4 5.4 0 1 1 23.99 8.2 Z
      M19.2 19.6 L28.8 19.6 C29.5 20 29.5 21.4 28.8 21.8 L19.2 21.8 C18.5 21.4 18.5 20 19.2 19.6 Z
      M20.5 23 L27.5 23 C29 28.6 29.9 34.2 30.3 40 L17.7 40 C18.1 34.2 19 28.6 20.5 23 Z" fill-rule="evenodd" stroke-width="1" stroke-linejoin="round" stroke-linecap="round" style="fill:var(--fill, #c9a45c);stroke:var(--rim, none)"></path></g><path d="M10.5 40 L37.5 40 L39 44.2 L9 44.2 Z" fill="#c9a45c" stroke="none" stroke-width="0"></path><g style="--fill:#c9a45c;--detail:#7a5c26;--accent:#e3c07a"><path d="M24 0.6 L25.9 4.8 L24 3.9 L22.1 4.8 Z M20 2 L21.3 5.4 L19.2 5 Z M28 2 L26.7 5.4 L28.8 5 Z" style="fill:var(--rim, #f2d98c)" />
  <path d="M24 0.6 L25.9 4.8 L24 3.9 L22.1 4.8 Z" stroke-width="0.5" style="fill:var(--rim, #f2d98c);stroke:var(--detail, #7a5c26)" />
  <path d="M24 26.4 L25 29 L27.8 29.1 L25.6 30.8 L26.4 33.5 L24 31.9 L21.6 33.5 L22.4 30.8 L20.2 29.1 L23 29 Z" opacity=".9" style="fill:var(--rim, #ece5d2)" />
  <path d="M15.5 42.6 L32.5 42.6" stroke="#f2d98c" stroke-width="1.5" stroke-linecap="round" opacity=".95" />
  <path d="M14 45 L34 45" stroke="#f2d98c" stroke-width="1" stroke-linecap="round" stroke-dasharray="2.5 2.2" opacity=".8" /></g></svg></svg>