<svg xmlns="http://www.w3.org/2000/svg" viewBox="-14 -20 28 34" data-gg="scenery:cottage">
<ellipse cx="0" cy="11" rx="12" ry="2.6" fill="rgba(46,42,32,.14)"></ellipse><path d="M-9 11 L-9 0 L9 0 L9 11 Z" fill="#cbb995"></path><path d="M9 11 L9 0 L4 0 L4 11 Z" fill="#b6a37e" opacity=".7"></path><path d="M-11.5 0 L0 -9 L11.5 0 Z" fill="#8a5a44"></path><path d="M0 -9 L11.5 0 L7.5 0 L-1.8 -7.4 Z" fill="#6f4636" opacity=".8"></path><path d="M4.5 -8.2 L4.5 -13 L7.3 -13 L7.3 -5.8 Z" fill="#7d7663"></path><path d="M5.9 -14 C4.6 -16 6.8 -16.6 6.2 -18.4" stroke="#b9b2a0" stroke-width="1.2" fill="none" stroke-linecap="round" opacity=".8"></path><path d="M-2 11 L-2 3.5 L2 3.5 L2 11 Z" fill="#5b4a33"></path><rect x="-7" y="2.5" width="3.4" height="3.4" fill="#3a4358"></rect><rect x="4" y="2.5" width="3.4" height="3.4" fill="#3a4358" opacity=".9"></rect>
</svg>
