<svg xmlns="http://www.w3.org/2000/svg" viewBox="-24 -26 48 46" data-gg="scenery:keep">
<ellipse cx="0" cy="17" rx="23" ry="3" fill="rgba(46,42,32,.14)"></ellipse><path d="M-20 16 L-20 -4 L-16 -4 L-16 -8 L-13 -8 L-13 -4 L-9 -4 L-9 -12 L-6 -12 L-6 -16 L-3 -16 L-3 -12 L0 -12 L0 -16 L3 -16 L3 -12 L6 -12 L6 -4 L9 -4 L9 -8 L13 -8 L13 -4 L16 -4 L16 16 Z" style="fill:var(--fill, #c9a45c)"></path><path d="M-1.6 16 L-1.6 6 Q0 4.4 1.6 6 L1.6 16 Z" fill="#ece5d2" opacity=".9"></path><path d="M-4.5 -16 L-4.5 -22 L1.5 -20 L-4.5 -18.2 Z" style="fill:var(--fill, #c9a45c)"></path>
</svg>
