<svg xmlns="http://www.w3.org/2000/svg" viewBox="-13 -24 26 44" data-gg="scenery:mill">
<ellipse cx="0" cy="17" rx="11" ry="2.6" fill="rgba(46,42,32,.14)"></ellipse><path d="M-7 17 L-4.5 -6 L4.5 -6 L7 17 Z" fill="#b6a37e"></path><path d="M7 17 L4.5 -6 L1.5 -6 L3.4 17 Z" fill="#9d8a67" opacity=".8"></path><path d="M-6 -6 L0 -12 L6 -6 Z" fill="#8a5a44"></path><path d="M-1.4 17 L-1.4 10.5 L1.4 10.5 L1.4 17 Z" fill="#5b4a33"></path><g stroke="#5b4a33" stroke-width="1.6" stroke-linecap="round"><path d="M0 -8.5 L10 -18.5 M2.4 -16.4 L7.6 -10.6"></path><path d="M0 -8.5 L-10 -18.5 M-7.6 -10.6 L-2.4 -16.4"></path><path d="M0 -8.5 L10 1.5 M7.6 -6.4 L2.4 -0.6"></path><path d="M0 -8.5 L-10 1.5 M-2.4 -0.6 L-7.6 -6.4"></path></g><circle cx="0" cy="-8.5" r="1.6" fill="#5b4a33"></circle>
</svg>
