<svg xmlns="http://www.w3.org/2000/svg" viewBox="-11 -19 32 44" data-gg="scenery:palm">
<ellipse cx="0" cy="22" rx="7" ry="2" fill="rgba(46,42,32,.14)"></ellipse><path d="M-1 22 C0 14 1.5 8 4 2 L5.8 2.8 C3.4 8.6 2.2 14.6 1.6 22 Z" fill="#8a6f4d"></path><path d="M5 2 C10 -1 15 -1 18.5 2 C13.5 1.6 9.5 2.6 6.4 4.6 Z M5 2 C7 -3 10.5 -5.5 15 -5.5 C11 -3 8 -0.8 6 2 Z M4.6 2 C1 -2 -3.6 -3 -8 -1 C-3.4 -0.6 0.4 0.8 3.2 3.4 Z M4.8 1.6 C3.6 -3.4 0.8 -6.6 -3.6 -7.6 C-0.4 -4.6 1.8 -1.6 3 2 Z" fill="#5f8a52"></path><circle cx="4.2" cy="3.6" r="1.3" fill="#7a5c26"></circle><circle cx="6.4" cy="4.4" r="1.3" fill="#7a5c26"></circle>
</svg>
