<svg xmlns="http://www.w3.org/2000/svg" viewBox="-10 -4 20 34" data-gg="scenery:pine">
<ellipse cx="0" cy="26" rx="8.5" ry="2.4" fill="rgba(46,42,32,.14)"></ellipse><path d="M-0.9 25 L0.9 25 L0.9 21 L-0.9 21 Z" fill="#5b4a33"></path><path d="M0 10 L6.2 22 L3.4 21.2 L4.8 24 L-4.8 24 L-3.4 21.2 L-6.2 22 Z" style="fill:var(--c1, #3f5540)"></path><path d="M0 4.5 L5 15 L2.7 14.3 L3.9 17 L-3.9 17 L-2.7 14.3 L-5 15 Z" style="fill:var(--c2, #4c6247)"></path><path d="M0 0 L3.9 9 L2 8.4 L3 11 L-3 11 L-2 8.4 L-3.9 9 Z" style="fill:var(--c2, #4c6247)"></path><path d="M0 0 L-3.9 9 L-2 8.4 L-2.6 10.4 L-0.4 10.4 L-0.4 4 Z" opacity=".8" style="fill:var(--c3, #66805c)"></path><path d="M-0.4 4.5 L-5 15 L-2.7 14.3 L-3.3 16.4 L-0.4 16.4 Z" opacity=".55" style="fill:var(--c3, #66805c)"></path>
</svg>
