<svg xmlns="http://www.w3.org/2000/svg" viewBox="-19 -15 38 32" data-gg="scenery:ruinarch">
<ellipse cx="0" cy="13" rx="17" ry="3" fill="rgba(46,42,32,.14)"></ellipse><path d="M-13 13 L-13 -4 C-13 -10 -6 -13 0 -13 C4 -13 8 -11.6 10.6 -9 L8 -6.6 C6 -8.6 3 -9.7 0 -9.7 C-4.6 -9.7 -9.6 -7.4 -9.6 -3.6 L-9.6 13 Z" fill="#9b937f"></path><path d="M6 13 L6 2 L9.4 2 L9.4 13 Z" fill="#7d7663"></path><path d="M12 11 L15.5 9.4 L16.4 13 L12.4 13 Z" fill="#7d7663" opacity=".9"></path><path d="M-13 -1.6 L-9.6 -1.6 M-13 4.6 L-9.6 4.6" stroke="#7d7663" stroke-width="1" opacity=".7"></path>
</svg>
