<svg xmlns="http://www.w3.org/2000/svg" viewBox="6 0 36 42" data-gg="piece:M">
<path d="M31.7 8.8 L33.3 8.8 L33.3 40 L31.7 40 Z
      M32.5 3 L35.2 8.3 L29.8 8.3 Z
      M23.3 5.8 C26.5 6.2 28.2 8.3 28 11.2 L26.4 11.2 C26.5 9 25.3 7.6 23.3 7.3 Z
      M18.4 19.6 C18.4 14.4 28 14.4 28 19.6 L28 22.6 L18.4 22.6 Z
      M17.4 24.2 L29 24.2 C30.3 29.4 30.9 34.6 31.1 40 L14.9 40 C15.1 34.6 15.9 29.4 17.4 24.2 Z" fill-rule="evenodd" stroke-width="1" stroke-linejoin="round" stroke-linecap="round" style="fill:var(--fill, #c9a45c);stroke:var(--rim, none)"></path>
</svg>
