<svg xmlns="http://www.w3.org/2000/svg" viewBox="6 0 36 42" data-gg="piece:A">
<path d="M24 4.8 C29.2 9 30.8 16.8 28.8 24 L19.2 24 C17.2 16.8 18.8 9 24 4.8 Z
      M23.2 9.6 L24.8 9.6 L24.8 17.8 L23.2 17.8 Z
      M20.8 12.2 L27.2 12.2 L27.2 13.8 L20.8 13.8 Z
      M19 25.4 L29 25.4 C29.9 25.9 29.9 27.6 29 28.1 L19 28.1 C18.1 27.6 18.1 25.9 19 25.4 Z
      M19.7 29.4 L28.3 29.4 C29.4 32.9 29.9 36.4 30.1 40 L17.9 40 C18.1 36.4 18.6 32.9 19.7 29.4 Z" fill-rule="evenodd" stroke-width="1" stroke-linejoin="round" stroke-linecap="round" style="fill:var(--fill, #c9a45c);stroke:var(--rim, none)"></path>
</svg>
