<svg xmlns="http://www.w3.org/2000/svg" viewBox="6 0 36 42" data-gg="piece:S">
<path d="M13.6 21.4 L18.6 26.2 L17.1 27.8 L12 23 Z
      M11.9 20 L15.1 20.7 L12.7 23 Z
      M34.4 21.4 L29.4 26.2 L30.9 27.8 L36 23 Z
      M36.1 20 L32.9 20.7 L35.3 23 Z
      M24 6.6 C28.4 8.3 30.3 11.5 29.9 16 C32.2 21.4 32.9 30.2 32.2 40 L15.8 40 C15.1 30.2 15.8 21.4 18.1 16 C17.7 11.5 19.6 8.3 24 6.6 Z
      M24 11.2 C26.5 12.1 27.6 14.2 27.3 17 L20.7 17 C20.4 14.2 21.5 12.1 24 11.2 Z
      M20.2 24.4 L21.5 23.1 L27.8 29.4 L26.5 30.7 Z
      M27.8 24.4 L26.5 23.1 L20.2 29.4 L21.5 30.7 Z" fill-rule="evenodd" stroke-width="1" stroke-linejoin="round" stroke-linecap="round" style="fill:var(--fill, #c9a45c);stroke:var(--rim, none);stroke-width:var(--rimW, 1);paint-order:stroke fill"></path>
</svg>
