<svg xmlns="http://www.w3.org/2000/svg" viewBox="6 0 36 42" data-gg="piece:J">
<path d="M15.8 8.8 C19 8.8 20.6 11.6 20 15.5 C19.2 19.9 20.2 23.6 24 23.6 C27.8 23.6 28.8 19.9 28 15.5 C27.4 11.6 29 8.8 32.2 8.8 C33.8 12.5 33.6 17.5 31.8 21.8 C30 26.2 27 28.6 24 28.6 C21 28.6 18 26.2 16.2 21.8 C14.4 17.5 14.2 12.5 15.8 8.8 Z
      M18.9 9.8 L29.1 9.8 L29.1 11.3 L18.9 11.3 Z
      M21.9 13.6 L22.7 13.6 L22.7 22.4 L21.9 22.4 Z
      M23.6 14 L24.4 14 L24.4 23 L23.6 23 Z
      M25.3 13.6 L26.1 13.6 L26.1 22.4 L25.3 22.4 Z
      M20.2 30.4 L27.8 30.4 L29.2 40 L18.8 40 Z" fill-rule="evenodd" stroke-width="1" stroke-linejoin="round" stroke-linecap="round" style="fill:var(--fill, #c9a45c);stroke:var(--rim, none);stroke-width:var(--rimW, 1);paint-order:stroke fill"></path>
</svg>
