<svg xmlns="http://www.w3.org/2000/svg" viewBox="6 0 36 42" data-gg="piece:B">
<path d="M24 4.6 A2.7 2.7 0 1 1 23.99 4.6 Z
      M24 10.6 C29.6 13.7 32.1 19.3 31 25 C30.2 29.1 27.7 32.2 24 33.4 C20.3 32.2 17.8 29.1 17 25 C15.9 19.3 18.4 13.7 24 10.6 Z
      M22.1 15.5 L23.7 14.5 L28 22.6 L26.4 23.6 Z
      M18.2 34.8 L29.8 34.8 C30.7 35.3 30.7 37.1 29.8 37.6 L18.2 37.6 C17.3 37.1 17.3 35.3 18.2 34.8 Z
      M16.5 38.6 L31.5 38.6 L32.3 40 L15.7 40 Z" fill-rule="evenodd" stroke-width="1" stroke-linejoin="round" stroke-linecap="round" style="fill:var(--fill, #c9a45c);stroke:var(--rim, none)"></path>
</svg>
