<svg xmlns="http://www.w3.org/2000/svg" viewBox="6 0 36 42" data-gg="boss:b10">
<!-- Doppelritter — zwei Pferdekoepfe, voneinander abgewandt. Auf der Schachachse: Damenrock, Kragen, eigener Kopf. -->
<path d="M19.6 21.6 L19.6 15.6 C16.8 13.8 17 10 20 8.4 L22.6 7 L23.4 10.6 L23.4 21.6 Z M24.6 21.6 L24.6 10.6 L25.4 7 L28 8.4 C31 10 31.2 13.8 28.4 15.6 L28.4 21.6 Z M18.4 23 L29.6 23 C30.5 23.5 30.5 25.2 29.6 25.7 L18.4 25.7 C17.5 25.2 17.5 23.5 18.4 23 Z M20 27 L28 27 C29.5 31.2 30.3 35.5 30.7 40 L17.3 40 C17.7 35.5 18.5 31.2 20 27 Z" fill-rule="evenodd" stroke-width="1" stroke-linejoin="round" stroke-linecap="round" style="fill:var(--fill, #c9a45c);stroke:var(--rim, none);stroke-width:var(--rimW, 1);paint-order:stroke fill"></path>
</svg>
