<svg xmlns="http://www.w3.org/2000/svg" viewBox="6 0 36 42" data-gg="boss:b07">
<!-- Der Geist — schmale hohe Kapuze, kleine Oeffnung, zerfranster Saum. Auf der Schachachse: Damenrock, Kragen, eigener Kopf. -->
<path d="M24 5.4 C27.2 5.4 29 8.6 29 13.2 L29 21.6 L27.4 19.6 L25.7 21.6 L24 19.4 L22.3 21.6 L20.6 19.6 L19 21.6 L19 13.2 C19 8.6 20.8 5.4 24 5.4 Z M22.4 10.4 L25.6 10.4 L25.6 13.4 L22.4 13.4 Z M18.4 23 L29.6 23 C30.5 23.5 30.5 25.2 29.6 25.7 L18.4 25.7 C17.5 25.2 17.5 23.5 18.4 23 Z M20 27 L28 27 C29.5 31.2 30.3 35.5 30.7 40 L17.3 40 C17.7 35.5 18.5 31.2 20 27 Z" fill-rule="evenodd" stroke-width="1" stroke-linejoin="round" stroke-linecap="round" style="fill:var(--fill, #c9a45c);stroke:var(--rim, none);stroke-width:var(--rimW, 1);paint-order:stroke fill"></path>
</svg>
