<svg xmlns="http://www.w3.org/2000/svg" viewBox="6 0 36 42" data-gg="boss:b06">
<!-- Das Bollwerk — Zinnenkranz auf massigem Block. Auf der Schachachse: Damenrock, Kragen, eigener Kopf. -->
<path d="M17.8 21.6 L17.8 10.5 L20.2 10.5 L20.2 7.4 L22.6 7.4 L22.6 10.5 L25.4 10.5 L25.4 7.4 L27.8 7.4 L27.8 10.5 L30.2 10.5 L30.2 21.6 Z M20.6 14.4 L27.4 14.4 L27.4 17 L20.6 17 Z M18.4 23 L29.6 23 C30.5 23.5 30.5 25.2 29.6 25.7 L18.4 25.7 C17.5 25.2 17.5 23.5 18.4 23 Z M20 27 L28 27 C29.5 31.2 30.3 35.5 30.7 40 L17.3 40 C17.7 35.5 18.5 31.2 20 27 Z" fill-rule="evenodd" stroke-width="1" stroke-linejoin="round" stroke-linecap="round" style="fill:var(--fill, #c9a45c);stroke:var(--rim, none);stroke-width:var(--rimW, 1);paint-order:stroke fill"></path>
</svg>
