<svg xmlns="http://www.w3.org/2000/svg" viewBox="6 0 36 42" data-gg="boss:b17">
<!-- Lanzenmeister — Helm, daneben die aufgerichtete Lanze. Auf der Schachachse: Damenrock, Kragen, eigener Kopf. -->
<path d="M19.8 21.6 L19.8 12.6 C19.8 9.2 21.6 7 24 7 C26.4 7 28.2 9.2 28.2 12.6 L28.2 21.6 Z M32.2 8.4 L33.8 8.4 L33.8 21.6 L32.2 21.6 Z M31.4 9 L34.6 9 L33 3.8 Z M18.4 23 L29.6 23 C30.5 23.5 30.5 25.2 29.6 25.7 L18.4 25.7 C17.5 25.2 17.5 23.5 18.4 23 Z M20 27 L28 27 C29.5 31.2 30.3 35.5 30.7 40 L17.3 40 C17.7 35.5 18.5 31.2 20 27 Z" fill-rule="evenodd" stroke-width="1" stroke-linejoin="round" stroke-linecap="round" style="fill:var(--fill, #c9a45c);stroke:var(--rim, none);stroke-width:var(--rimW, 1);paint-order:stroke fill"></path>
</svg>
