<svg xmlns="http://www.w3.org/2000/svg" viewBox="6 0 36 42" data-gg="boss:b21">
<!-- Die Wandlerin — die rechte Seite kerzengerade, die linke zerfaellt in Stufen. Auf der Schachachse: Damenrock, Kragen, eigener Kopf. -->
<path d="M24 5.8 C27.8 5.8 30.2 9 30.2 13.6 L30.2 21.6 L24 21.6 Z M24 5.8 L24 21.6 L21.6 21.6 L21.6 18.4 L19.8 18.4 L19.8 15 L18 15 L18 12.4 C18.4 8.6 20.6 5.8 24 5.8 Z M18.4 23 L29.6 23 C30.5 23.5 30.5 25.2 29.6 25.7 L18.4 25.7 C17.5 25.2 17.5 23.5 18.4 23 Z M20 27 L28 27 C29.5 31.2 30.3 35.5 30.7 40 L17.3 40 C17.7 35.5 18.5 31.2 20 27 Z" fill-rule="evenodd" stroke-width="1" stroke-linejoin="round" stroke-linecap="round" style="fill:var(--fill, #c9a45c);stroke:var(--rim, none);stroke-width:var(--rimW, 1);paint-order:stroke fill"></path>
</svg>
