<svg xmlns="http://www.w3.org/2000/svg" viewBox="6 4 36 40" data-gg="boss:serpent">
<path d="M13 40 C15 36 19 34.5 24 34.5 C30 34.5 34 37 35 40 Z
        M12.6 39 C11.6 33 15 29 20 29 C26.6 29 29.6 26.6 29.6 21 C29.6 17 27.4 14.4 24 14.4 C21 14.4 19.4 16.4 19.8 18.6 L16.6 18 C16 13.6 19.4 10.6 24 10.6 C29.4 10.6 33 14.6 33 21 C33 28.6 28.4 32.4 21 32.4 C17.6 32.4 15.4 34.6 15.8 38 Z" fill-rule="evenodd" stroke-width="1" stroke-linejoin="round" stroke-linecap="round" style="fill:var(--fill, #c9a45c);stroke:var(--rim, none);stroke-width:var(--rimW, 1);paint-order:stroke fill"></path><circle cx="22.4" cy="14.6" r="1" style="fill:var(--accent, #e8c96a)"></circle><path d="M19.4 17 L15.6 19.6 M15.6 19.6 L13.8 18.4 M15.6 19.6 L14.8 21.4" fill="none" stroke-width="1.5" stroke-linecap="round" stroke-linejoin="round" style="stroke:var(--accent, #e8c96a)"></path>
</svg>
