<svg xmlns="http://www.w3.org/2000/svg" viewBox="6 0 36 42" data-gg="boss:b15">
<!-- Sturmkraehe — vorgestreckter Schnabel, gefaltete Schwingen. Auf der Schachachse: Damenrock, Kragen, eigener Kopf. -->
<path d="M20 21.6 L20 14.2 C20 11 21.8 8.8 24 8.8 C26.2 8.8 28 11 28 14.2 L28 21.6 Z M27.6 11.6 L34.6 13.6 L27.6 15.4 Z M19.6 12.2 L16.4 8.6 L18.4 8 Z M28.4 12.2 L29.6 8 L31.6 8.6 Z M18.4 23 L29.6 23 C30.5 23.5 30.5 25.2 29.6 25.7 L18.4 25.7 C17.5 25.2 17.5 23.5 18.4 23 Z M20 27 L28 27 C29.5 31.2 30.3 35.5 30.7 40 L17.3 40 C17.7 35.5 18.5 31.2 20 27 Z" fill-rule="evenodd" stroke-width="1" stroke-linejoin="round" stroke-linecap="round" style="fill:var(--fill, #c9a45c);stroke:var(--rim, none);stroke-width:var(--rimW, 1);paint-order:stroke fill"></path>
</svg>
