<svg xmlns="http://www.w3.org/2000/svg" viewBox="6 4 36 40" data-gg="boss:b13">
<!-- The Firestarter — a body shaped like the flame it carries. -->
<path d="M24 8 C27 14 32 17 32 24 C32 33 28 39 24 40 C20 39 16 33 16 24 C16 17 21 14 24 8 Z M24 20 C26 24 27 26 27 29 C27 32 26 34 24 35 C22 34 21 32 21 29 C21 26 22 24 24 20 Z" fill-rule="evenodd" stroke-width="1" stroke-linejoin="round" stroke-linecap="round" style="fill:var(--fill, #c9a45c);stroke:var(--rim, none);stroke-width:var(--rimW, 1);paint-order:stroke fill"></path><path d="M19 15 L15 11 M29 15 L33 11" fill="none" stroke-width="1.5" stroke-linecap="round" stroke-linejoin="round" style="stroke:var(--accent, #e8c96a)"></path>
</svg>
