<svg xmlns="http://www.w3.org/2000/svg" viewBox="6 0 36 42" data-gg="boss:b02">
<!-- Springbock — zwei geschwungene Hoerner ueber schmalem Kopf. Auf der Schachachse: Damenrock, Kragen, eigener Kopf. -->
<path d="M20.4 21.6 L20.4 14.4 C20.4 11.6 22 9.8 24 9.8 C26 9.8 27.6 11.6 27.6 14.4 L27.6 21.6 Z M20.8 11.2 C17.4 9.6 15.8 6.6 16.6 4.2 C18.9 5 20.9 7 21.9 9.6 Z M27.2 11.2 L26.1 9.6 C27.1 7 29.1 5 31.4 4.2 C32.2 6.6 30.6 9.6 27.2 11.2 Z M18.4 23 L29.6 23 C30.5 23.5 30.5 25.2 29.6 25.7 L18.4 25.7 C17.5 25.2 17.5 23.5 18.4 23 Z M20 27 L28 27 C29.5 31.2 30.3 35.5 30.7 40 L17.3 40 C17.7 35.5 18.5 31.2 20 27 Z" fill-rule="evenodd" stroke-width="1" stroke-linejoin="round" stroke-linecap="round" style="fill:var(--fill, #c9a45c);stroke:var(--rim, none);stroke-width:var(--rimW, 1);paint-order:stroke fill"></path>
</svg>
