<svg xmlns="http://www.w3.org/2000/svg" viewBox="6 0 36 42" data-gg="boss:b22">
<!-- Der Zerreisser — ein Kamm aus Zaehnen, seitlich die Klaue. Auf der Schachachse: Damenrock, Kragen, eigener Kopf. -->
<path d="M19.4 21.6 L19.4 13.4 L21.2 9.6 L23 13 L24.8 8.8 L26.6 13 L28.4 9.6 L28.6 21.6 Z M33.4 12.4 L31 15.6 L33.8 16.4 L30.4 18.6 Z M18.4 23 L29.6 23 C30.5 23.5 30.5 25.2 29.6 25.7 L18.4 25.7 C17.5 25.2 17.5 23.5 18.4 23 Z M20 27 L28 27 C29.5 31.2 30.3 35.5 30.7 40 L17.3 40 C17.7 35.5 18.5 31.2 20 27 Z" fill-rule="evenodd" stroke-width="1" stroke-linejoin="round" stroke-linecap="round" style="fill:var(--fill, #c9a45c);stroke:var(--rim, none);stroke-width:var(--rimW, 1);paint-order:stroke fill"></path>
</svg>
