<svg xmlns="http://www.w3.org/2000/svg" viewBox="6 0 36 42" data-gg="boss:b16">
<!-- Die Blutmagd — schlanke Gestalt, der Schleier laeuft in drei lange Spitzen aus. Auf der Schachachse: Damenrock, Kragen, eigener Kopf. -->
<path d="M24 6.2 C26.6 6.2 28.4 8.4 28.4 11.4 L27.4 14.6 L30.6 21.6 L26.6 17.8 L24 21.6 L21.4 17.8 L17.4 21.6 L20.6 14.6 L19.6 11.4 C19.6 8.4 21.4 6.2 24 6.2 Z M18.4 23 L29.6 23 C30.5 23.5 30.5 25.2 29.6 25.7 L18.4 25.7 C17.5 25.2 17.5 23.5 18.4 23 Z M20 27 L28 27 C29.5 31.2 30.3 35.5 30.7 40 L17.3 40 C17.7 35.5 18.5 31.2 20 27 Z" fill-rule="evenodd" stroke-width="1" stroke-linejoin="round" stroke-linecap="round" style="fill:var(--fill, #c9a45c);stroke:var(--rim, none);stroke-width:var(--rimW, 1);paint-order:stroke fill"></path>
</svg>
