<svg xmlns="http://www.w3.org/2000/svg" viewBox="6 0 36 42" data-gg="boss:b03">
<!-- Die Brutmutter — praller Eiersack, darueber gespreizte Beine. Auf der Schachachse: Damenrock, Kragen, eigener Kopf. -->
<path d="M24 8.4 C28.4 8.4 31 12 31 15.8 C31 19 29.4 21.6 24 21.6 C18.6 21.6 17 19 17 15.8 C17 12 19.6 8.4 24 8.4 Z M18.6 11.4 L14.2 7.4 L15.6 6 L19.8 10 Z M29.4 11.4 L28.2 10 L32.4 6 L33.8 7.4 Z M17.4 16.4 L12.8 17.4 L12.6 15.4 L17.2 14.6 Z M30.6 16.4 L30.8 14.6 L35.4 15.4 L35.2 17.4 Z M18.4 23 L29.6 23 C30.5 23.5 30.5 25.2 29.6 25.7 L18.4 25.7 C17.5 25.2 17.5 23.5 18.4 23 Z M20 27 L28 27 C29.5 31.2 30.3 35.5 30.7 40 L17.3 40 C17.7 35.5 18.5 31.2 20 27 Z" fill-rule="evenodd" stroke-width="1" stroke-linejoin="round" stroke-linecap="round" style="fill:var(--fill, #c9a45c);stroke:var(--rim, none);stroke-width:var(--rimW, 1);paint-order:stroke fill"></path>
</svg>
