<svg xmlns="http://www.w3.org/2000/svg" viewBox="6 0 36 42" data-gg="boss:b09">
<!-- Skorpion — der Stachel woelbt sich ueber den Kopf. Auf der Schachachse: Damenrock, Kragen, eigener Kopf. -->
<path d="M20.4 21.6 L20.4 15.6 C20.4 12.8 21.8 11 24 11 C26.2 11 27.6 12.8 27.6 15.6 L27.6 21.6 Z M28.4 12.6 C33 10.4 34.4 6.4 32.2 4.2 C34.8 7.4 32 11.2 28.8 12 Z M19.8 14.6 L14.6 12.6 L15.4 10.8 L20.4 12.8 Z M18.4 23 L29.6 23 C30.5 23.5 30.5 25.2 29.6 25.7 L18.4 25.7 C17.5 25.2 17.5 23.5 18.4 23 Z M20 27 L28 27 C29.5 31.2 30.3 35.5 30.7 40 L17.3 40 C17.7 35.5 18.5 31.2 20 27 Z" fill-rule="evenodd" stroke-width="1" stroke-linejoin="round" stroke-linecap="round" style="fill:var(--fill, #c9a45c);stroke:var(--rim, none);stroke-width:var(--rimW, 1);paint-order:stroke fill"></path>
</svg>
