<svg xmlns="http://www.w3.org/2000/svg" viewBox="6 0 36 42" data-gg="boss:b24">
<!-- Seuchenkoenig — drei gestapelte Windungen, daraus hebt sich der gekroente Kopf.
     Auf der Schachachse: Damenrock, Kragen, eigener Kopf. -->
<path d="M17.6 21.6 C17.6 19.4 19 18 21.2 18 L28.4 18 C29.6 18 30.4 18.8 30.4 20 C30.4 21.2 29.6 21.6 28.4 21.6 Z M18.8 17 C18.8 15 20.2 13.8 22.2 13.8 L27.6 13.8 C28.8 13.8 29.6 14.6 29.6 15.6 C29.6 16.6 28.8 17 27.6 17 Z M21.2 12.8 C21.2 10.6 22.6 9.4 24.4 9.4 L26.6 9.4 C27.8 9.4 28.6 10.2 28.6 11.2 C28.6 12.2 27.8 12.8 26.6 12.8 Z M22.6 8.4 L23.6 5.6 L25.2 7.8 L26.8 5.6 L27.8 8.4 Z M18.4 23 L29.6 23 C30.5 23.5 30.5 25.2 29.6 25.7 L18.4 25.7 C17.5 25.2 17.5 23.5 18.4 23 Z M20 27 L28 27 C29.5 31.2 30.3 35.5 30.7 40 L17.3 40 C17.7 35.5 18.5 31.2 20 27 Z" fill-rule="evenodd" stroke-width="1" stroke-linejoin="round" stroke-linecap="round" style="fill:var(--fill, #c9a45c);stroke:var(--rim, none);stroke-width:var(--rimW, 1);paint-order:stroke fill"></path>
</svg>
