<svg xmlns="http://www.w3.org/2000/svg" viewBox="6 0 36 42" data-gg="boss:b01">
<!-- Der Waechter — ein Schild als Kopf, gerade Schultern, Sehschlitz. Auf der Schachachse: Damenrock, Kragen, eigener Kopf. -->
<path d="M17.6 7 L30.4 7 L30.4 15.4 C30.4 19 27.6 21.6 24 21.6 C20.4 21.6 17.6 19 17.6 15.4 Z M20.6 10.4 L27.4 10.4 L27.4 12.8 L20.6 12.8 Z M18.4 23 L29.6 23 C30.5 23.5 30.5 25.2 29.6 25.7 L18.4 25.7 C17.5 25.2 17.5 23.5 18.4 23 Z M20 27 L28 27 C29.5 31.2 30.3 35.5 30.7 40 L17.3 40 C17.7 35.5 18.5 31.2 20 27 Z" fill-rule="evenodd" stroke-width="1" stroke-linejoin="round" stroke-linecap="round" style="fill:var(--fill, #c9a45c);stroke:var(--rim, none);stroke-width:var(--rimW, 1);paint-order:stroke fill"></path>
</svg>
