<svg xmlns="http://www.w3.org/2000/svg" viewBox="6 0 36 42" data-gg="boss:b13">
<!-- Brandstifter — der Kopf ist die Flamme selbst. Auf der Schachachse: Damenrock, Kragen, eigener Kopf. -->
<path d="M24 5.2 C26 9.6 29 11.8 29 16 C29 19.4 26.8 21.6 24 21.6 C21.2 21.6 19 19.4 19 16 C19 11.8 22 9.6 24 5.2 Z M24 12.4 C25.2 14.6 25.8 15.8 25.8 17.2 C25.8 18.6 25 19.6 24 19.6 C23 19.6 22.2 18.6 22.2 17.2 C22.2 15.8 22.8 14.6 24 12.4 Z M18.4 23 L29.6 23 C30.5 23.5 30.5 25.2 29.6 25.7 L18.4 25.7 C17.5 25.2 17.5 23.5 18.4 23 Z M20 27 L28 27 C29.5 31.2 30.3 35.5 30.7 40 L17.3 40 C17.7 35.5 18.5 31.2 20 27 Z" fill-rule="evenodd" stroke-width="1" stroke-linejoin="round" stroke-linecap="round" style="fill:var(--fill, #c9a45c);stroke:var(--rim, none);stroke-width:var(--rimW, 1);paint-order:stroke fill"></path>
</svg>
