<svg xmlns="http://www.w3.org/2000/svg" viewBox="6 0 36 42" data-gg="boss:b18">
<!-- Eisenfaust — Blockkopf, daneben die Hammerhand. Auf der Schachachse: Damenrock, Kragen, eigener Kopf. -->
<path d="M18.6 21.6 L18.6 11.6 C18.6 8.8 20.9 6.9 24 6.9 C27.1 6.9 29.4 8.8 29.4 11.6 L29.4 13.2 L33.8 13.2 L33.8 19.2 L29.4 19.2 L29.4 21.6 Z M18.4 23 L29.6 23 C30.5 23.5 30.5 25.2 29.6 25.7 L18.4 25.7 C17.5 25.2 17.5 23.5 18.4 23 Z M20 27 L28 27 C29.5 31.2 30.3 35.5 30.7 40 L17.3 40 C17.7 35.5 18.5 31.2 20 27 Z" fill-rule="evenodd" stroke-width="1" stroke-linejoin="round" stroke-linecap="round" style="fill:var(--fill, #c9a45c);stroke:var(--rim, none);stroke-width:var(--rimW, 1);paint-order:stroke fill"></path>
</svg>
