<svg xmlns="http://www.w3.org/2000/svg" viewBox="6 0 36 42" data-gg="boss:b11">
<!-- Die Fluesterin — hohe Kapuze mit offener Gugel. Auf der Schachachse: Damenrock, Kragen, eigener Kopf. -->
<path d="M24 5.6 C28.4 5.6 31 9 31 13.6 L31 21.6 L17 21.6 L17 13.6 C17 9 19.6 5.6 24 5.6 Z M21.4 11 C22.2 15.4 25.8 15.4 26.6 11 C26 14 22 14 21.4 11 Z M18.4 23 L29.6 23 C30.5 23.5 30.5 25.2 29.6 25.7 L18.4 25.7 C17.5 25.2 17.5 23.5 18.4 23 Z M20 27 L28 27 C29.5 31.2 30.3 35.5 30.7 40 L17.3 40 C17.7 35.5 18.5 31.2 20 27 Z" fill-rule="evenodd" stroke-width="1" stroke-linejoin="round" stroke-linecap="round" style="fill:var(--fill, #c9a45c);stroke:var(--rim, none);stroke-width:var(--rimW, 1);paint-order:stroke fill"></path>
</svg>
