<svg xmlns="http://www.w3.org/2000/svg" viewBox="6 0 36 42" data-gg="boss:b20">
<!-- Der Hueter — Helm ueber einem grossen Schluesselring. Auf der Schachachse: Damenrock, Kragen, eigener Kopf. -->
<path d="M20 21.6 L20 12.8 C20 9.4 21.8 7.2 24 7.2 C26.2 7.2 28 9.4 28 12.8 L28 21.6 Z M24 13.8 C26.1 13.8 27.8 15.5 27.8 17.6 C27.8 19.7 26.1 21.4 24 21.4 C21.9 21.4 20.2 19.7 20.2 17.6 C20.2 15.5 21.9 13.8 24 13.8 Z M24 16 C23.1 16 22.4 16.7 22.4 17.6 C22.4 18.5 23.1 19.2 24 19.2 C24.9 19.2 25.6 18.5 25.6 17.6 C25.6 16.7 24.9 16 24 16 Z M18.4 23 L29.6 23 C30.5 23.5 30.5 25.2 29.6 25.7 L18.4 25.7 C17.5 25.2 17.5 23.5 18.4 23 Z M20 27 L28 27 C29.5 31.2 30.3 35.5 30.7 40 L17.3 40 C17.7 35.5 18.5 31.2 20 27 Z" fill-rule="evenodd" stroke-width="1" stroke-linejoin="round" stroke-linecap="round" style="fill:var(--fill, #c9a45c);stroke:var(--rim, none);stroke-width:var(--rimW, 1);paint-order:stroke fill"></path>
</svg>
