<svg xmlns="http://www.w3.org/2000/svg" viewBox="6 0 36 42" data-gg="piece:V">
<path d="M13.5 13.4 C16 9.6 32 9.6 34.5 13.4 C35.6 14 35.4 15.6 34.2 16 L13.8 16 C12.6 15.6 12.4 14 13.5 13.4 Z
      M21.6 10.2 C22 7.8 26 7.8 26.4 10.2 Z
      M20.2 17.2 L27.8 17.2 L27.8 20.4 L20.2 20.4 Z
      M17.2 22 L30.8 22 C32.2 27.8 32.9 33.8 33.2 40 L14.8 40 C15.1 33.8 15.8 27.8 17.2 22 Z
      M22.6 22 L24 25.4 L25.4 22 Z
      M30.4 24.6 L37.2 17.2 L39 18.8 L32.2 26.2 Z
      M36.4 15.8 L39.9 12 L41.6 13.6 L38.1 17.4 Z" fill-rule="evenodd" stroke-width="1" stroke-linejoin="round" stroke-linecap="round" style="fill:var(--fill, #c9a45c);stroke:var(--rim, none);stroke-width:var(--rimW, 1);paint-order:stroke fill"></path>
</svg>
