<svg xmlns="http://www.w3.org/2000/svg" viewBox="6 0 36 42" data-gg="piece:T">
<path d="M22.5 8 L25.5 8 L26.1 11.2 L28.9 12.4 L31.6 10.7 L33.7 12.8 L32 15.5 L33.2 18.3 L36.4 18.9 L36.4 21.9 L33.2 22.5 L32 25.3 L33.7 28 L31.6 30.1 L28.9 28.4 L26.1 29.6 L25.5 32.8 L22.5 32.8 L21.9 29.6 L19.1 28.4 L16.4 30.1 L14.3 28 L16 25.3 L14.8 22.5 L11.6 21.9 L11.6 18.9 L14.8 18.3 L16 15.5 L14.3 12.8 L16.4 10.7 L19.1 12.4 L21.9 11.2 Z
      M24 16.6 A3.8 3.8 0 1 1 23.99 16.6 Z
      M20.6 34.6 L27.4 34.6 L28.6 40 L19.4 40 Z" fill-rule="evenodd" stroke-width="1" stroke-linejoin="round" stroke-linecap="round" style="fill:var(--fill, #c9a45c);stroke:var(--rim, none)"></path>
</svg>
