<svg xmlns="http://www.w3.org/2000/svg" viewBox="6 0 36 42" data-gg="piece:K">
<path d="M22.8 2.6 L25.2 2.6 L25.2 5.2 L27.8 5.2 L27.8 7.6 L25.2 7.6 L25.2 10.2 L22.8 10.2 L22.8 7.6 L20.2 7.6 L20.2 5.2 L22.8 5.2 Z
      M18.3 19.6 C18.3 12.8 21.3 11 24 11 C26.7 11 29.7 12.8 29.7 19.6 L28.9 21.2 L19.1 21.2 Z
      M18.9 22.4 L29.1 22.4 C29.9 22.8 29.9 24.2 29.1 24.6 L18.9 24.6 C18.1 24.2 18.1 22.8 18.9 22.4 Z
      M19.5 25.6 L28.5 25.6 C29.2 26 29.2 27.3 28.5 27.7 L19.5 27.7 C18.8 27.3 18.8 26 19.5 25.6 Z
      M20 29 L28 29 C29.7 32.8 30.7 36.3 31.2 40 L16.8 40 C17.3 36.3 18.3 32.8 20 29 Z" fill-rule="evenodd" stroke-width="1" stroke-linejoin="round" stroke-linecap="round" style="fill:var(--fill, #c9a45c);stroke:var(--rim, none)"></path>
</svg>
