<svg xmlns="http://www.w3.org/2000/svg" viewBox="6 0 36 42" data-gg="piece:N">
<path d="M16 40
      C15.5 33 17 27.6 20.6 25.1
      C19.3 23.6 19 21.9 20.2 20.4
      C17.4 19.9 14.1 18.8 12.2 17
      L11.2 15.7 L11.15 14.4 L13.3 13.85 L11.5 12.7
      C14 9.7 18 8.1 21.3 7.95
      L22.5 7.75 L24.1 3.8 L25.9 8 L26.7 7.7 L28.4 4.5 L29.9 8.5
      C31.3 9.7 32.3 11 33.1 12.6
      C34.3 14.6 34.9 16.6 34.9 16.6 L32.6 17.4
      C34.9 20.1 35.6 23.3 35.6 23.3 L33.3 24
      C35.5 27.2 35.7 30.9 35.7 30.9 L33.5 31.4
      C35.4 34.8 34.6 38 33.5 40 Z" fill-rule="evenodd" stroke-width="1" stroke-linejoin="round" stroke-linecap="round" style="fill:var(--fill, #c9a45c);stroke:var(--rim, none)"></path>
</svg>
