<svg xmlns="http://www.w3.org/2000/svg" viewBox="6 0 36 42" data-gg="piece:U">
<path d="M23.1 3.6 L24.9 3.6 L25.2 19.6 L24 22.8 L22.8 19.6 Z
      M20.4 8.6 L27.6 8.6 L27.6 10.4 L20.4 10.4 Z
      M20.4 16.2 C20.4 12.8 27.6 12.8 27.6 16.2 L27.6 17 L20.4 17 Z
      M16.4 23.4 C16.4 18.6 20.8 16.6 24 16.6 C27.2 16.6 31.6 18.6 31.6 23.4 L31.6 26 L16.4 26 Z
      M21.6 13.9 L26.4 13.9 L26.4 15.1 L21.6 15.1 Z
      M17.4 27.6 L30.6 27.6 C31.4 31.6 31.8 35.7 32 40 L16 40 C16.2 35.7 16.6 31.6 17.4 27.6 Z" fill-rule="evenodd" stroke-width="1" stroke-linejoin="round" stroke-linecap="round" style="fill:var(--fill, #c9a45c);stroke:var(--rim, none)"></path>
</svg>
