<svg xmlns="http://www.w3.org/2000/svg" viewBox="6 0 36 42" data-gg="piece:O">
<path d="M14.2 14.6 C14.2 12.2 22 12.2 22 14.6 L22 26.6 C22 29.8 14.2 29.8 14.2 26.6 Z
      M26 14.6 C26 12.2 33.8 12.2 33.8 14.6 L33.8 26.6 C33.8 29.8 26 29.8 26 26.6 Z
      M22 17.2 L26 17.2 L26 20.8 L22 20.8 Z
      M18.1 15.6 A2 2 0 1 1 18.09 15.6 Z
      M29.9 15.6 A2 2 0 1 1 29.89 15.6 Z
      M20.6 31.4 L27.4 31.4 L28.6 40 L19.4 40 Z" fill-rule="evenodd" stroke-width="1" stroke-linejoin="round" stroke-linecap="round" style="fill:var(--fill, #c9a45c);stroke:var(--rim, none)"></path>
</svg>
