<svg xmlns="http://www.w3.org/2000/svg" viewBox="6 0 36 42" data-gg="piece:Q">
<path d="M16.6 21.8 L18 12.9 L21.1 18.3 L24 9.9 L26.9 18.3 L30 12.9 L31.4 21.8 Z
      M17.6 11.4 A1.7 1.7 0 1 1 17.59 11.4 Z
      M24 7.2 A1.9 1.9 0 1 1 23.99 7.2 Z
      M30.4 11.4 A1.7 1.7 0 1 1 30.39 11.4 Z
      M18.4 23 L29.6 23 C30.5 23.5 30.5 25.2 29.6 25.7 L18.4 25.7 C17.5 25.2 17.5 23.5 18.4 23 Z
      M20 27 L28 27 C29.5 31.2 30.3 35.5 30.7 40 L17.3 40 C17.7 35.5 18.5 31.2 20 27 Z" fill-rule="evenodd" stroke-width="1" stroke-linejoin="round" stroke-linecap="round" style="fill:var(--fill, #c9a45c);stroke:var(--rim, none)"></path>
</svg>
