<svg xmlns="http://www.w3.org/2000/svg" viewBox="6 0 36 42" data-gg="piece:SE">
<path d="M24 2.4 A3.2 3.2 0 1 1 23.99 2.4 Z
      M24 9.6 C18.4 12.4 16.6 18.4 16.6 24.4 L18.6 24.4 C18.6 19.2 20.4 15.2 24 13.2 C27.6 15.2 29.4 19.2 29.4 24.4 L31.4 24.4 C31.4 18.4 29.6 12.4 24 9.6 Z
      M24 14.6 C21.2 16.4 20 20 20 24.4 L28 24.4 C28 20 26.8 16.4 24 14.6 Z
      M19 26.2 L29 26.2 L30.2 32.6 L17.8 32.6 Z
      M18.8 34.2 L29.2 34.2 L30.6 40 L17.4 40 Z" fill-rule="evenodd" stroke-width="1" stroke-linejoin="round" stroke-linecap="round" style="fill:var(--fill, #c9a45c);stroke:var(--rim, none);stroke-width:var(--rimW, 1);paint-order:stroke fill"></path>
</svg>
