<svg xmlns="http://www.w3.org/2000/svg" viewBox="6 0 36 42" data-gg="piece:Y">
<path d="M23.4 6.6 C26.9 3.2 31.8 3.6 34.3 7.3 C31 7.1 28.1 8.3 26 10.8 L24.2 9 Z
      M24 6.9 C28.7 9.5 30.6 14.4 29.7 19.6 L18.3 19.6 C17.4 14.4 19.3 9.5 24 6.9 Z
      M20.1 14.6 L27.9 14.6 L27.9 16.2 L20.1 16.2 Z
      M18.9 21 L29.1 21 C30 21.5 30 23.2 29.1 23.7 L18.9 23.7 C18 23.2 18 21.5 18.9 21 Z
      M18.6 25 L29.4 25 C30.6 30 31.2 34.9 31.5 40 L16.5 40 C16.8 34.9 17.4 30 18.6 25 Z" fill-rule="evenodd" stroke-width="1" stroke-linejoin="round" stroke-linecap="round" style="fill:var(--fill, #c9a45c);stroke:var(--rim, none)"></path>
</svg>
