<svg xmlns="http://www.w3.org/2000/svg" viewBox="6 0 36 42" data-gg="piece:W">
<path d="M14.6 7.8 C17.5 10.9 18.8 14.5 18.6 18.3 L15.8 23.8 L12.7 15 C12.3 12.3 13 9.7 14.6 7.8 Z
      M33.4 7.8 C35 9.7 35.7 12.3 35.3 15 L32.2 23.8 L29.4 18.3 C29.2 14.5 30.5 10.9 33.4 7.8 Z
      M24 13.2 C30 13.2 32.8 17.8 32.1 24.2 L31.3 27.6 L16.7 27.6 L15.9 24.2 C15.2 17.8 18 13.2 24 13.2 Z
      M19.2 20.6 L22.4 20.6 L22.4 22.4 L19.2 22.4 Z
      M25.6 20.6 L28.8 20.6 L28.8 22.4 L25.6 22.4 Z
      M17.4 29.2 L30.6 29.2 C31.5 32.9 31.9 36.4 32.1 40 L15.9 40 C16.1 36.4 16.5 32.9 17.4 29.2 Z" fill-rule="evenodd" stroke-width="1" stroke-linejoin="round" stroke-linecap="round" style="fill:var(--fill, #c9a45c);stroke:var(--rim, none)"></path>
</svg>
