<svg xmlns="http://www.w3.org/2000/svg" viewBox="0 0 32 32" data-gg="icon:hourglass"><path d="M9 4h14M9 28h14" stroke="#7a5c26" stroke-width="2.6" stroke-linecap="round"/><path d="M11 6h10c0 4-2.4 6.6-4 8.4v3.2c1.6 1.8 4 4.4 4 8.4H11c0-4 2.4-6.6 4-8.4v-3.2C13.4 12.6 11 10 11 6z" fill="none" stroke="#c9a45c" stroke-width="1.8" stroke-linejoin="round"/><path d="M12.6 23.4c.8-2 2-3.4 3.4-4.9 1.4 1.5 2.6 2.9 3.4 4.9z" fill="#0e1424"/><path d="M13.2 7.6h5.6c-.4 1.6-1.4 2.8-2.8 4.2-1.4-1.4-2.4-2.6-2.8-4.2z" fill="#c9a45c" opacity=".55"/><path d="M16 18.6v-4.4M16 12.6l-1.3 1.6M16 12.6l1.3 1.6" stroke="#e8c97e" stroke-width="1.5" stroke-linecap="round" stroke-linejoin="round"/><circle cx="16" cy="10.8" r=".9" fill="#f0dfae"/></svg>
